<svg width="1117" height="250" viewBox="0 0 1117 250" fill="none" xmlns="http://www.w3.org/2000/svg">
<path fill-rule="evenodd" clip-rule="evenodd" d="M689.974 147.176C690.5 139.121 690.798 131.04 690.504 124.797C690.477 114.682 690.366 106.422 689.707 98.1542C688.95 88.6978 687.842 79.3262 686.097 70.0034C683.671 57.045 679.994 44.5183 673.971 32.7568C668.397 21.8676 661.19 12.3579 650.27 6.2392C641.05 1.07725 631.146 -0.684917 620.622 0.231773C609.849 1.17073 600.536 5.22021 592.607 12.4915C583.66 20.6928 577.926 31.0169 573.394 42.0841C566.659 58.5223 563.663 75.8285 561.891 93.3704C561.17 100.495 560.729 107.664 560.578 114.824C560.266 129.473 560.671 144.101 562.22 158.701C563.138 167.321 564.375 175.865 566.307 184.306C569.521 198.342 574.151 211.843 581.75 224.183C587.457 233.452 594.798 240.982 605.019 245.232C615.436 249.561 626.267 250.572 637.32 248.444C643.748 247.207 649.718 244.666 654.958 240.67C665.414 232.687 672.061 221.896 677.104 210.019C682.375 197.607 685.54 184.622 687.459 171.277C688.612 163.267 689.453 155.23 689.974 147.176ZM650.435 121.325H650.078C650.078 125.562 650.077 129.799 650.076 134.035C650.071 148.178 650.066 162.32 650.114 176.465C650.123 178.557 649.575 179.291 647.359 179.225C638.817 178.96 630.271 178.763 621.726 178.567L618.136 178.484C615.065 178.413 611.994 178.34 608.923 178.263C606.181 178.192 606.016 177.912 605.909 175.148C605.858 173.831 605.808 172.514 605.757 171.197L605.636 168.002C605.301 159.143 604.965 150.282 604.516 141.43C604.29 136.968 604.125 132.503 603.959 128.039V128.036C603.853 125.183 603.747 122.331 603.625 119.479C603.453 115.414 603.288 111.348 603.124 107.282C602.987 103.896 602.85 100.511 602.708 97.1262C602.614 94.8854 602.524 92.6445 602.434 90.4037C602.242 85.6407 602.05 80.8782 601.823 76.1177C601.728 74.1511 601.667 72.1846 601.605 70.2178L601.604 70.1946C601.553 68.5511 601.501 66.9076 601.431 65.2641C601.364 63.7023 601.738 62.9768 603.496 62.9991C618.543 63.1993 633.59 63.3507 648.636 63.4442C650.477 63.4561 650.461 64.4683 650.443 65.6115L650.44 65.8435L650.439 65.9584C650.435 84.4125 650.435 102.871 650.435 121.325ZM1.83983 192.112C1.8115 196.043 1.78318 199.974 1.78318 203.904C1.94799 203.904 2.1082 203.904 2.25517 203.909C2.25517 204.971 2.25461 206.033 2.25406 207.095V207.36C2.25314 209.394 2.25222 211.428 2.25517 213.463C2.25976 216.072 2.26786 218.681 2.27595 221.289C2.29839 228.617 2.32083 235.946 2.26841 243.274C2.25517 245.063 2.78933 245.485 4.51211 245.472C11.2951 245.409 18.0806 245.418 24.8667 245.426C27.2062 245.429 29.5457 245.432 31.8853 245.432C37.3841 245.432 37.3878 245.423 39.424 240.393L39.4577 240.31C43.0916 231.32 46.7336 222.337 50.376 213.353C51.8379 209.747 53.2999 206.141 54.7613 202.535L57.291 196.29C60.8357 187.535 64.3795 178.779 67.9225 170.022L78.5509 143.75L78.8059 143.119L79.0641 142.481C81.1824 137.249 83.2986 132.018 85.4148 126.786L85.8579 125.691L86.2729 124.664L89.0278 117.854C90.186 114.991 91.3445 112.129 92.5037 109.266C94.8719 103.414 97.2447 97.5713 99.6129 91.7239C99.7998 91.2612 99.8311 90.5001 100.468 90.598C101.101 90.6972 101.093 91.2797 101.087 91.8086V91.8102L101.086 91.8562L101.085 91.9701L101.086 92.0168L101.086 92.0667C101.095 92.436 101.086 92.8097 101.086 93.1792C101.101 98.7413 100.864 104.294 100.627 109.847V109.849V109.852V109.854V109.856V109.858C100.504 112.725 100.382 115.592 100.294 118.46C100.174 122.38 100.054 126.301 99.9335 130.222L99.8833 131.85L99.8265 133.704L99.5933 141.293L99.3681 148.644C99.2384 152.922 99.092 157.198 98.9456 161.474L98.8965 162.907L98.8054 165.581C98.6984 168.742 98.5943 171.902 98.4999 175.064C98.3778 179.128 98.2634 183.192 98.149 187.256V187.258V187.26V187.262V187.265V187.267V187.269C97.851 197.856 97.553 208.443 97.1156 219.025C96.9296 223.559 96.8389 228.096 96.7483 232.634C96.676 236.248 96.6037 239.862 96.4834 243.474C96.4345 244.956 96.6125 245.49 98.2774 245.476C108.957 245.392 119.641 245.401 130.325 245.467C131.883 245.476 132.328 245.045 132.288 243.487C132.229 241.145 132.226 238.803 132.222 236.46V236.451C132.217 232.797 132.211 229.143 131.994 225.487C131.592 218.713 131.587 211.929 131.581 205.146C131.578 201.48 131.575 197.814 131.509 194.15C131.27 180.745 131.066 167.338 130.863 153.93C130.737 145.622 130.611 137.314 130.476 129.006C130.385 123.386 130.302 117.765 130.218 112.146L130.216 112.052C130.056 101.249 129.896 90.4479 129.68 79.6467C129.548 73.0573 129.484 66.4664 129.419 59.8757L129.418 59.7653C129.373 55.2032 129.328 50.6414 129.261 46.0802C129.198 41.7849 129.098 37.4896 128.999 33.1943L128.998 33.1816C128.787 24.0685 128.576 14.9546 128.718 5.83863C128.736 4.5705 128.531 4.07204 127.071 4.08548C117.357 4.16993 107.639 4.1611 97.9212 4.13C96.9107 4.1254 96.2742 4.30352 95.8201 5.27357C94.1591 8.80214 92.4794 12.3219 90.7998 15.8413L90.7982 15.8451L90.7965 15.849C89.533 18.4966 88.2697 21.144 87.0147 23.7945C84.7192 28.642 82.4252 33.4902 80.1321 38.3388L76.4045 46.221L76.2296 46.5908L76.2208 46.6096L76.212 46.6284L76.2031 46.6471L76.1943 46.6659C70.7022 58.2795 65.2103 69.8926 59.7037 81.4979C56.2234 88.8311 52.7271 96.1576 49.2308 103.484C47.9923 106.079 46.7538 108.674 45.5161 111.27C43.8612 114.739 42.2076 118.21 40.5571 121.682C39.4658 123.977 38.3941 126.282 37.3227 128.586L37.3117 128.611L37.2664 128.708C36.7242 129.874 36.1821 131.04 35.6371 132.205C35.1695 133.205 34.6999 134.204 34.227 135.201C34.1941 135.269 34.1619 135.344 34.1284 135.422L34.1279 135.424L34.1251 135.431C33.924 135.9 33.6829 136.462 33.056 136.322C32.4818 136.197 32.5309 135.512 32.5353 134.987C32.5377 134.659 32.5388 134.331 32.539 134.003C32.5394 133.53 32.5381 133.057 32.5368 132.584C32.532 130.938 32.5272 129.293 32.5931 127.649L32.683 125.456C32.7744 123.233 32.8675 121.01 32.9615 118.787L33.0654 116.335L33.1723 113.82L33.3113 110.567L33.3119 110.555L33.3125 110.544L33.313 110.532C33.6535 102.56 33.9939 94.5884 34.3026 86.6153C34.3975 84.1904 34.4314 81.7627 34.4652 79.3357C34.5171 75.6123 34.5689 71.8905 34.8412 68.1835C35.0376 65.5033 35.0888 62.8283 35.1397 60.1542C35.1598 59.1012 35.1798 58.0482 35.2089 56.9951C35.2263 56.3578 35.2471 55.7202 35.2731 55.0826C35.5206 48.9343 35.7557 42.7861 35.9906 36.6377C36.092 33.9866 36.1933 31.3356 36.2956 28.6845C36.3784 26.5412 36.4617 24.398 36.5463 22.2548L36.6155 20.4845C36.8091 15.5307 37.0028 10.5801 37.2852 5.62961C37.3564 4.42367 36.9824 4.0231 35.8696 4.02752C33.3551 4.03451 30.8409 4.04279 28.3268 4.05107L28.2385 4.05162C19.5076 4.08014 10.7789 4.10848 2.05026 4.08088C0.398664 4.07646 -0.0374568 4.5705 0.00245812 6.21694C0.0859667 9.67393 0.0999461 13.1317 0.113926 16.59C0.132136 21.0601 0.150346 25.5313 0.31865 30.0023C0.606884 37.6803 0.585731 45.3615 0.564578 53.0439C0.543425 60.7808 0.522271 68.5189 0.817127 76.2557C1.09138 83.4704 1.06269 90.6897 1.03399 97.9106C1.00585 104.995 0.977706 112.082 1.23559 119.167C1.53173 127.239 1.51886 135.315 1.50598 143.393V143.41C1.49439 150.746 1.4828 158.084 1.70316 165.421C1.96859 174.313 1.90421 183.213 1.83983 192.112ZM871.505 4.12669C869.949 4.12393 868.394 4.12117 866.839 4.12117C865.301 4.12117 863.762 4.1232 862.223 4.12522H862.222C858.123 4.13056 854.021 4.13571 849.914 4.10351C848.551 4.09008 847.973 4.41502 848.142 5.93689C848.396 8.21076 848.485 10.5159 848.511 12.8076C848.572 17.6991 848.562 22.5904 848.553 27.482C848.537 35.4872 848.521 43.493 848.814 51.5005C849.096 59.1923 849.069 66.8874 849.042 74.5835C849.014 82.3066 848.987 90.0307 849.273 97.7538C849.575 105.938 849.573 114.127 849.572 122.318C849.57 129.324 849.569 136.332 849.758 143.34C850.068 154.771 850.105 166.212 850.141 177.653L850.142 178.003C850.148 179.886 850.155 181.769 850.162 183.652C850.173 186.45 850.187 189.248 850.207 192.045C850.257 198.662 850.356 205.277 850.455 211.892V211.894V211.896V211.898V211.901V211.903V211.905C850.614 222.481 850.772 233.056 850.728 243.634C850.724 244.907 850.951 245.467 852.411 245.459C863.019 245.401 873.628 245.418 884.236 245.454C885.273 245.454 885.839 245.134 886.221 244.15C886.36 243.795 886.5 243.441 886.641 243.087C886.722 242.883 886.803 242.68 886.885 242.477C887.013 242.158 887.143 241.839 887.272 241.521C887.665 240.556 888.063 239.593 888.461 238.63C888.675 238.112 888.889 237.594 889.102 237.076C889.362 236.444 889.62 235.812 889.876 235.179C892.105 229.656 894.333 224.133 896.561 218.61L898.384 214.091C904.1 199.919 909.816 185.747 915.544 171.58C919.227 162.473 922.922 153.372 926.616 144.271C929.817 136.387 933.017 128.504 936.209 120.618C938.009 116.174 939.799 111.726 941.589 107.278C943.712 102.002 945.835 96.7256 947.975 91.4571C947.988 91.4257 947.999 91.3923 948.011 91.3576C948.042 91.2648 948.068 91.1622 948.096 91.0569C948.219 90.5835 948.357 90.055 948.923 90.1266C949.621 90.2138 949.599 90.7877 949.579 91.3318C949.573 91.4818 949.568 91.6295 949.577 91.7642C949.655 92.8371 949.531 93.901 949.408 94.9612C949.318 95.7346 949.228 96.5061 949.217 97.2776C949.101 104.745 948.842 112.205 948.583 119.667C948.483 122.557 948.383 125.447 948.291 128.339C948.214 130.763 948.143 133.187 948.071 135.612C947.89 141.758 947.709 147.905 947.441 154.051C947.319 156.848 947.266 159.648 947.213 162.449C947.155 165.5 947.097 168.551 946.951 171.602C946.798 174.812 946.744 178.028 946.69 181.243C946.626 185.066 946.562 188.888 946.332 192.699C946.16 195.56 946.119 198.419 946.078 201.278C946.05 203.306 946.021 205.334 945.945 207.362C945.751 212.614 945.571 217.866 945.392 223.118L945.39 223.165L945.39 223.183C945.158 229.968 944.926 236.753 944.663 243.536C944.6 245.165 945.188 245.485 946.697 245.476C957.23 245.414 967.767 245.387 978.299 245.485C980.267 245.503 980.922 245.005 980.735 243.02C980.182 237.201 980.223 231.371 980.263 225.538V225.536C980.296 220.847 980.329 216.156 980.053 211.469C979.715 205.728 979.729 199.98 979.743 194.229C979.755 189.086 979.768 183.941 979.528 178.797C979.224 172.285 979.198 165.761 979.172 159.234C979.156 155.16 979.14 151.085 979.056 147.011C978.806 134.881 978.625 122.749 978.443 110.617V110.614V110.612V110.609V110.606V110.603C978.349 104.359 978.255 98.1146 978.153 91.8709C978.036 84.7989 977.951 77.7263 977.866 70.6539V70.6522C977.71 57.641 977.553 44.6298 977.204 31.6222C977.109 28.0578 977.132 24.4926 977.155 20.9272C977.186 15.9686 977.218 11.0098 976.933 6.05244C976.835 4.28144 976.229 4.04996 974.707 4.05898C965.363 4.11676 956.014 4.12117 946.67 4.05438C945.206 4.04113 944.485 4.51732 943.866 5.82998C938.505 17.1675 933.116 28.4909 927.727 39.8137L927.721 39.8264L924.52 46.5515L922.004 51.8409L919.854 56.3644C914.187 68.2898 908.524 80.2171 902.862 92.1445C896.028 106.539 889.194 120.933 882.353 135.325C882.339 135.353 882.326 135.382 882.314 135.411C882.3 135.443 882.287 135.476 882.274 135.51C882.242 135.591 882.212 135.676 882.181 135.763C881.993 136.292 881.788 136.868 881.204 136.758C880.323 136.593 880.484 135.667 880.597 135.016L880.621 134.871C881.204 131.359 881.223 127.814 881.242 124.272V124.27C881.252 122.563 881.261 120.856 881.333 119.154C881.619 112.505 881.859 105.853 882.099 99.1995C882.297 93.7227 882.495 88.2458 882.718 82.7706C882.904 78.1992 883.022 73.6253 883.14 69.0518V69.0501C883.299 62.8947 883.458 56.7401 883.782 50.5927C883.921 47.9957 883.984 45.4002 884.047 42.805C884.098 40.6644 884.15 38.5241 884.245 36.3838C884.443 31.8528 884.623 27.322 884.803 22.791C885.028 17.1225 885.254 11.454 885.514 5.78545C885.576 4.33038 885.037 4.08566 883.751 4.09891C879.67 4.14086 875.587 4.13387 871.505 4.12669ZM790.568 45.8979C790.568 43.2194 790.569 40.5407 790.57 37.8619C790.573 27.1181 790.576 16.3725 790.533 5.62979C790.528 4.4728 790.742 4.10332 791.94 4.10792C804.992 4.14344 818.049 4.1346 831.101 4.11234C832.143 4.11234 832.508 4.4371 832.53 5.50964C832.561 7.02782 832.635 8.54601 832.708 10.0642C832.814 12.2485 832.92 14.4327 832.899 16.6168C832.808 27.0815 833.015 37.5424 833.223 48.0021L833.223 48.0093C833.339 53.8487 833.454 59.6878 833.518 65.5269C833.553 68.759 833.559 71.9928 833.565 75.2268C833.58 82.7412 833.594 90.2563 833.968 97.754C834.231 103.065 834.23 108.372 834.23 113.678C834.229 117.627 834.229 121.576 834.337 125.526C834.655 136.991 834.8 148.458 834.945 159.925V159.927V159.93V159.932V159.934V159.936L834.945 159.976C835.042 167.609 835.138 175.242 835.285 182.874C835.356 186.548 835.36 190.223 835.364 193.899V193.913C835.37 200.169 835.376 206.423 835.713 212.662C835.977 217.603 835.974 222.545 835.97 227.485C835.966 232.77 835.963 238.053 836.287 243.332C836.385 244.903 836.042 245.49 834.27 245.476C821.583 245.392 808.9 245.414 796.213 245.468C794.749 245.472 794.139 245.209 794.188 243.554C794.277 240.422 794.316 237.287 794.355 234.153C794.421 228.84 794.487 223.527 794.798 218.229C794.971 215.268 794.99 212.308 795.009 209.35C795.025 206.756 795.042 204.163 795.163 201.573C795.484 194.658 795.623 187.74 795.761 180.821C795.865 175.674 795.968 170.526 796.146 165.381C796.242 162.631 796.283 159.881 796.323 157.132C796.36 154.627 796.397 152.122 796.476 149.619C796.525 148.066 795.986 147.545 794.432 147.549C780.931 147.594 767.429 147.594 753.927 147.549C752.329 147.545 751.848 148.137 751.919 149.646C752.279 157.533 752.438 165.428 752.597 173.322V173.324V173.325V173.327V173.329V173.33C752.69 177.944 752.783 182.557 752.916 187.168C753.005 190.254 753.084 193.341 753.164 196.427L753.167 196.52C753.323 202.576 753.479 208.632 753.7 214.687C753.898 220.142 754.048 225.598 754.199 231.054C754.306 234.924 754.413 238.794 754.537 242.664L754.542 242.83C754.584 244.11 754.605 244.76 754.29 245.091C753.965 245.432 753.282 245.432 751.892 245.432C750.703 245.432 749.514 245.432 748.324 245.431C746.414 245.429 744.504 245.427 742.593 245.425C733.304 245.414 724.015 245.403 714.725 245.49C712.664 245.508 712.308 244.858 712.299 242.993C712.291 241.633 712.283 240.272 712.275 238.911V238.909V238.908V238.906V238.904V238.903C712.212 228.184 712.148 217.462 711.836 206.748C711.553 197.042 711.382 187.335 711.211 177.629C711.116 172.219 711.021 166.808 710.906 161.398C710.603 147.251 710.318 133.105 710.033 118.954L709.734 104.139C709.534 94.2589 709.335 84.3784 709.139 74.4982C709.076 71.3516 709.017 68.2046 708.957 65.0575L708.957 65.0487L708.957 65.0398L708.957 65.031L708.956 65.0222L708.956 65.0133C708.745 53.8035 708.533 42.5918 708.186 31.3909C708.095 28.4545 708.093 25.5143 708.091 22.574C708.087 17.0656 708.084 11.5566 707.492 6.07029C707.318 4.4728 707.883 4.08566 709.428 4.09008C722.556 4.1346 735.688 4.11676 748.821 4.07223C750.196 4.06781 750.717 4.33038 750.65 5.90561C750.487 9.9078 750.373 13.9131 750.259 17.9186C750.104 23.3862 749.949 28.8539 749.667 34.3145C749.406 39.3166 749.234 44.3205 749.062 49.324C749.021 50.5301 748.98 51.736 748.937 52.942L748.874 54.6935C748.844 55.5161 748.813 56.3386 748.781 57.1609C748.398 66.8353 747.966 76.5095 747.459 86.1794C747.352 88.1731 747.89 88.7915 749.978 88.7783C762.372 88.6966 774.763 88.7438 787.156 88.7911H787.161H787.165H787.17H787.174H787.232L788.476 88.7961C790.592 88.8047 790.591 87.4511 790.591 86.0098V85.948C790.591 80.5814 790.59 75.216 790.588 69.8505L790.584 59.4852L790.582 53.9124C790.568 51.238 790.568 48.5679 790.568 45.8979ZM483.934 4.09008C488.1 4.09008 492.266 4.09284 496.433 4.0956C509.699 4.10461 522.965 4.11344 536.232 4.03212C538.529 4.01887 539.165 4.61061 539.143 6.89792L539.124 9.18505V9.18781V9.19057V9.19333C539.055 17.1782 538.986 25.1682 539.343 33.1397C539.543 37.5778 539.524 42.0159 539.505 46.4519C539.483 51.4992 539.461 56.5442 539.762 61.5841C539.969 65.0406 539.989 68.497 540.009 71.9534C540.016 73.1651 540.023 74.3767 540.038 75.5884C540.09 79.8772 540.124 84.1668 540.159 88.4566C540.241 98.7702 540.323 109.085 540.657 119.39C540.787 123.422 540.784 127.454 540.78 131.486V131.491C540.776 136.65 540.771 141.807 541.048 146.958C541.345 152.462 541.335 157.965 541.326 163.467C541.319 167.302 541.312 171.136 541.409 174.97C541.899 194.381 542.255 213.792 542.286 233.208C542.29 236.417 542.488 239.627 542.686 242.833L542.722 243.416C542.816 244.911 542.406 245.472 540.777 245.463C528.094 245.396 515.407 245.405 502.72 245.454C501.331 245.459 500.801 245.165 500.832 243.643C501.05 233.07 501.527 222.51 502.136 211.954C502.232 210.303 502.259 208.651 502.286 206.999C502.319 204.96 502.352 202.921 502.515 200.878C502.812 197.132 502.877 193.367 502.942 189.601V189.598V189.596V189.595V189.593C502.98 187.434 503.017 185.275 503.098 183.118C503.552 171.059 504.037 159.004 504.567 146.949C504.847 140.518 505.119 134.093 505.364 127.658C505.796 116.213 506.232 104.767 506.762 93.326C506.914 90.0381 507.028 86.7478 507.142 83.4575C507.35 77.4409 507.558 71.4239 508.004 65.42C508.137 63.6088 507.567 62.9682 505.653 62.9814C494.377 63.066 483.101 63.0705 471.825 62.9814C469.688 62.9636 469.221 63.7779 469.221 65.7359C469.228 71.1367 469.237 76.5374 469.246 81.9382V81.9785C469.291 108.969 469.335 135.96 469.194 162.951C469.136 173.675 468.615 184.413 467.836 195.116C467.133 204.754 465.98 214.34 462.677 223.591C458.564 235.099 451 242.473 438.95 244.991C430.305 246.798 421.677 247.012 413.081 244.537C411.487 244.079 410.886 243.425 410.895 241.667C410.975 226.911 410.984 212.155 410.891 197.398C410.877 195.454 411.483 195.036 413.259 195.156C417.412 195.44 421.486 195.013 425.39 193.384C429.588 191.631 432.121 188.543 433.176 184.173C435.175 175.918 435.455 167.57 434.596 159.151C434.585 159.037 434.578 158.923 434.574 158.81L434.571 158.717C434.568 158.597 434.566 158.476 434.565 158.356C434.564 158.25 434.563 158.144 434.56 158.038C434.503 156.171 434.447 154.303 434.391 152.436L434.289 149.035C434.072 141.748 433.854 134.461 433.599 127.177C433.176 115.278 432.722 103.379 432.21 91.4838C431.889 84.0121 431.613 76.545 431.368 69.0691C431.157 62.4921 430.839 55.92 430.52 49.3477V49.3461V49.3444V49.3428L430.52 49.3234C430.223 43.199 429.927 37.0745 429.717 30.9458C429.663 29.3725 429.6 27.7991 429.537 26.2255C429.407 22.997 429.278 19.768 429.227 16.5368C429.174 13.0524 429.08 9.57237 428.72 6.11482C428.546 4.4371 429.111 4.03653 430.745 4.04555C442.312 4.10167 453.882 4.10516 465.451 4.10866H465.571C468.65 4.10958 471.729 4.1105 474.808 4.11234H483.934V4.09008ZM1078.68 184.771L1078.68 196.393C1078.68 198.537 1078.68 200.682 1078.69 202.827L1078.69 206.288C1078.69 218.56 1078.7 230.83 1078.63 243.095C1078.62 244.88 1078.99 245.485 1080.91 245.467C1092.11 245.369 1103.31 245.347 1114.51 245.467C1116.66 245.49 1117.07 244.782 1116.99 242.851C1116.66 234.64 1116.42 226.421 1116.19 218.206C1116.11 215.11 1116.02 212.014 1115.94 208.917C1115.65 198.835 1115.36 188.752 1115.21 178.668C1115.08 169.906 1114.83 161.153 1114.58 152.398L1114.58 152.392L1114.58 152.385C1114.53 150.629 1114.48 148.874 1114.43 147.118C1114.29 142.247 1114.17 137.376 1114.05 132.506C1113.88 125.383 1113.71 118.261 1113.47 111.139C1113.32 106.374 1113.22 101.606 1113.12 96.8378L1113.12 96.8285C1112.98 90.0501 1112.84 83.2708 1112.53 76.496C1112.37 72.8898 1112.33 69.2786 1112.29 65.6678C1112.27 63.3568 1112.24 61.0457 1112.19 58.736C1112.15 57.3718 1112.12 56.0074 1112.08 54.6429C1112.04 53.2104 1112 51.7778 1111.95 50.345L1111.95 50.3345C1111.8 45.2114 1111.65 40.0864 1111.58 34.9596C1111.5 29.1139 1111.3 23.2684 1111.11 17.4227L1111.11 17.4062C1110.98 13.4851 1110.85 9.56409 1110.76 5.64304C1110.73 4.36148 1110.29 4.0277 1109.09 3.95649C1107.59 3.86615 1106.09 3.81242 1104.59 3.75851H1104.59H1104.59C1102.62 3.68767 1100.64 3.61683 1098.67 3.46245C1094.75 3.15646 1090.84 2.7719 1086.93 2.38734L1086.93 2.38678L1086.92 2.38623L1086.91 2.38513C1081.79 1.8817 1076.67 1.37828 1071.53 1.05057C1060.25 0.329661 1049.11 0.601061 1038.19 3.84959C1026.21 7.41404 1017 14.1381 1011.88 25.9795C1006.76 37.8166 1004.5 50.2364 1003.97 62.9724C1003.62 71.2316 1003.74 79.5175 1004.71 87.7858C1005.93 98.1319 1008.3 108.118 1012.85 117.498C1015.64 123.23 1018.98 128.605 1023.99 132.757C1026.57 134.898 1029.47 136.504 1032.45 137.969C1033.8 138.631 1033.87 139.206 1032.73 140.145C1031.82 140.897 1030.92 141.678 1030.03 142.459C1029.25 143.141 1028.47 143.824 1027.68 144.488C1025.52 146.286 1023.69 148.208 1022.61 150.967C1021.28 154.348 1019.85 157.692 1018.42 161.035C1016.24 166.134 1014.06 171.23 1012.24 176.452C1010.35 181.875 1008.94 187.469 1007.53 193.061L1007.53 193.062L1007.53 193.065C1006.96 195.35 1006.38 197.635 1005.78 199.908C1004.67 204.034 1003.57 208.162 1002.48 212.289L1002.47 212.318L1002.47 212.331C999.673 222.83 996.88 233.329 994.001 243.803C993.546 245.452 994.063 245.449 995.117 245.442C995.189 245.441 995.264 245.441 995.34 245.441L998.638 245.436C1010.82 245.419 1023 245.402 1035.17 245.467C1036.8 245.476 1037.13 244.826 1037.32 243.434C1037.65 240.863 1038.11 238.309 1038.56 235.758L1038.56 235.756L1038.78 234.547C1039.49 230.564 1040.2 226.581 1040.91 222.598L1040.92 222.539L1040.93 222.48C1041.65 218.497 1042.36 214.513 1043.07 210.53C1044.47 202.6 1045.87 194.662 1047.26 186.727C1047.38 186.019 1047.51 185.31 1047.63 184.602C1047.87 183.208 1048.11 181.813 1048.35 180.418C1049.1 176.026 1049.85 171.632 1050.67 167.254C1050.75 166.831 1050.81 166.4 1050.87 165.968C1051.11 164.07 1051.36 162.164 1053.56 160.975C1058.91 158.088 1064.21 155.104 1069.5 152.12L1069.52 152.108C1071.73 150.863 1073.94 149.619 1076.15 148.381C1078.49 147.069 1078.68 147.18 1078.68 149.903C1078.69 161.455 1078.69 173.009 1078.68 184.561V184.771ZM1078.68 66.6633C1078.68 69.0481 1078.68 71.4327 1078.68 73.8172C1078.68 76.0786 1078.68 78.3403 1078.68 80.602C1078.66 86.8678 1078.65 93.1343 1078.73 99.3958C1078.76 101.514 1078.08 101.977 1076.01 101.874C1068.9 101.522 1061.78 101.283 1054.66 101.044L1054.63 101.043L1054.6 101.042C1052.56 100.973 1050.52 100.904 1048.48 100.833C1044.91 100.708 1044.78 100.669 1044.87 97.2287C1045.08 89.5328 1045.3 81.837 1045.52 74.1412C1045.74 66.4399 1045.96 58.7387 1046.17 51.0376C1046.2 49.8762 1046.53 49.2931 1047.75 49.1418C1049.83 48.8835 1051.91 48.5929 1053.99 48.3024C1056.06 48.0122 1058.14 47.7221 1060.21 47.4641C1062.12 47.2286 1064.03 47.0203 1065.94 46.812L1065.98 46.8081C1069.47 46.4276 1072.97 46.0469 1076.44 45.5017C1078.54 45.1724 1078.7 45.9779 1078.69 47.5666C1078.68 53.931 1078.68 60.2976 1078.68 66.6633ZM338.703 205.426C336.684 205.426 334.665 205.431 332.645 205.435C327.171 205.448 321.695 205.46 316.222 205.382C314.477 205.355 313.782 206.067 313.551 207.58C312.616 213.677 311.699 219.773 310.768 225.87L310.328 228.773C309.572 233.75 308.817 238.726 308.031 243.696C307.866 244.738 307.51 245.485 306.054 245.472C295.891 245.392 285.728 245.414 275.56 245.45C274.127 245.454 273.744 245.263 274.047 243.576C275.06 238.005 275.979 232.417 276.898 226.83C277.501 223.162 278.104 219.494 278.734 215.83C279.431 211.79 280.165 207.757 280.9 203.724C281.635 199.691 282.369 195.659 283.066 191.618C283.64 188.29 284.169 184.955 284.698 181.62L284.699 181.614L284.702 181.594C285.217 178.347 285.732 175.1 286.289 171.86C287.161 166.773 288.062 161.692 288.963 156.61L288.966 156.592C289.994 150.792 291.023 144.991 292.009 139.183C292.979 133.474 293.912 127.758 294.846 122.042L294.852 122.001C295.844 115.926 296.836 109.851 297.872 103.784C298.877 97.9001 299.933 92.0259 300.989 86.1515C301.851 81.3537 302.713 76.5558 303.548 71.7525C304.343 67.1702 305.1 62.5796 305.858 57.9891C306.448 54.4081 307.039 50.8273 307.648 47.2507C307.916 45.6725 308.186 44.0945 308.458 42.5169C308.943 39.6954 309.432 36.8749 309.922 34.0543C310.611 30.0783 311.301 26.1026 311.979 22.126L312.231 20.6488L312.232 20.6416C313.097 15.5739 313.963 10.5043 314.717 5.41617C314.873 4.35264 315.149 4.06781 316.168 4.07223C329.372 4.10351 342.58 4.10792 355.784 4.08566C356.754 4.08566 356.954 4.45495 357.128 5.34054C357.986 9.77495 358.876 14.2046 359.766 18.6342C360.345 21.5167 360.925 24.3995 361.495 27.2835C362.318 31.4314 363.124 35.5828 363.93 39.7333C364.394 42.1196 364.857 44.5056 365.324 46.8902L367.566 58.4068C368.511 63.2563 369.456 68.1058 370.403 72.954C371.987 81.0585 373.574 89.1597 375.162 97.2632L375.173 97.3184L375.927 101.171C376.666 104.943 377.405 108.715 378.143 112.487L378.151 112.53C379.575 119.808 380.999 127.087 382.431 134.364C384.239 143.562 386.064 152.756 387.88 161.95C388.229 163.712 388.578 165.475 388.927 167.238L389.749 171.381L389.773 171.502C391.036 177.868 392.299 184.235 393.543 190.603C394.398 194.977 395.239 199.354 396.081 203.731C397.049 208.765 398.017 213.798 399.005 218.825C400.67 227.289 402.384 235.744 404.115 244.195C404.338 245.276 403.933 245.45 402.989 245.45C390.449 245.432 377.913 245.414 365.373 245.476C363.735 245.484 363.76 244.621 363.789 243.647C363.791 243.573 363.793 243.498 363.795 243.423L363.797 243.309L363.871 231.105C363.903 225.682 363.935 220.258 363.966 214.834C363.971 213.944 363.961 213.054 363.951 212.164C363.934 210.68 363.917 209.196 363.97 207.714C364.033 205.974 363.347 205.386 361.611 205.404C356.15 205.449 350.683 205.441 345.212 205.432H345.153C343.003 205.429 340.853 205.426 338.703 205.426ZM333.156 153.682V153.731C334.598 153.731 336.041 153.728 337.484 153.726H337.542C341.123 153.721 344.704 153.715 348.283 153.744C349.769 153.757 350.633 153.268 350.312 151.675C349.074 145.563 347.82 139.454 346.566 133.345L345.327 127.31L344.73 124.396L344.061 121.134L343.444 118.131C342.195 112.052 340.946 105.973 339.727 99.8854C337.658 89.5579 335.629 79.2174 333.6 68.8812L333.476 68.2503C333.383 67.7831 333.263 67.3157 332.791 67.289C332.453 67.2712 332.221 67.6896 332.128 68.0812C332.075 68.2959 332.006 68.508 331.937 68.7202C331.847 68.9962 331.758 69.2724 331.705 69.5541C331.256 71.9836 330.814 74.4143 330.372 76.8447L330.366 76.8806L330.358 76.9226C329.589 81.1485 328.821 85.3741 328.019 89.5925C327.039 94.7515 326.036 99.9053 325.034 105.06C324.138 109.669 323.241 114.278 322.361 118.891C321.371 124.09 320.395 129.29 319.419 134.491C318.371 140.077 317.322 145.663 316.257 151.247C315.928 152.979 316.386 153.735 318.252 153.708C321.839 153.657 325.427 153.666 329.015 153.675C330.395 153.678 331.776 153.682 333.156 153.682ZM190.133 61.4684V152.017C190.133 182.277 190.133 212.533 190.124 242.793C190.124 243.008 190.126 243.223 190.129 243.439C190.133 243.817 190.137 244.196 190.128 244.573C190.115 245.232 190.427 245.423 191.068 245.49C195.055 245.894 199.04 246.32 203.024 246.747C204.613 246.917 206.203 247.088 207.793 247.256C213.005 247.808 218.214 248.355 223.422 248.907C226.645 249.245 229.868 249.615 233.1 249.895C233.193 249.903 233.296 249.922 233.402 249.942C233.942 250.041 234.578 250.158 234.529 248.961C234.454 247.137 234.378 245.313 234.301 243.489C233.919 234.361 233.536 225.233 233.354 216.102C233.231 209.997 233.039 203.896 232.847 197.795C232.732 194.139 232.617 190.482 232.517 186.825C232.457 184.668 232.378 182.51 232.299 180.353C232.131 175.777 231.963 171.199 231.978 166.618C231.985 164.235 231.883 161.857 231.78 159.478C231.752 158.823 231.724 158.168 231.698 157.513C231.498 152.504 231.359 147.495 231.22 142.485C231.072 137.137 230.924 131.79 230.701 126.443C230.429 119.883 230.307 113.316 230.185 106.749C230.065 100.282 229.944 93.8147 229.681 87.3541C229.554 84.2572 229.493 81.1601 229.432 78.0637C229.368 74.8645 229.305 71.6659 229.169 68.4683C229.118 67.2465 229.064 66.0248 229.011 64.803C228.706 57.8187 228.401 50.8337 228.408 43.8419C228.408 42.5425 228.729 42.0396 230.26 42.3244C238.812 43.9136 247.374 45.4425 255.935 46.9714C259.241 47.5618 262.546 48.1521 265.851 48.7459C267.356 49.0173 268.104 48.8526 268.09 46.8858C267.988 33.3888 268.001 19.892 268.077 6.39505C268.086 4.56608 267.623 4.07223 265.753 4.07664C250.304 4.12062 234.855 4.11142 219.405 4.10222C212.97 4.09836 206.535 4.09449 200.1 4.09449C190.546 4.09449 180.991 4.10406 171.435 4.11363C165.041 4.12007 158.648 4.12651 152.254 4.13C152.118 4.13 151.986 4.12632 151.857 4.12264C150.865 4.09449 150.096 4.0726 150.108 5.82115C150.211 21.3949 150.216 36.9656 150.221 52.5387L150.224 60.3248C150.224 63.2929 150.366 63.3998 153.34 62.9814C157.711 62.3674 162.092 61.7845 166.477 61.2682C169.66 60.8919 172.846 60.5386 176.033 60.1852C179.744 59.7735 183.456 59.3619 187.163 58.9141C188.664 58.7321 189.406 58.6204 189.774 58.94C190.134 59.2537 190.133 59.9828 190.133 61.4684Z" fill="#1A1A1A"/>
</svg>
