<svg width="442" height="280" viewBox="0 0 442 280" fill="none" xmlns="http://www.w3.org/2000/svg">
<path d="M280.169 179.588C280.338 184.02 277.994 187.56 276.24 191.319C273.001 198.297 268.093 203.825 262.258 208.798C259.036 211.545 255.966 214.478 252.728 217.225C250.114 219.433 246.977 220.697 244.143 222.501C243.553 222.889 242.777 222.973 242.389 222.198C242.018 221.473 242.507 220.815 243.081 220.478C244.177 219.838 245.476 219.518 246.488 218.776C250.468 215.894 254.499 213.045 257.974 209.539C259.255 208.241 260.588 207.028 262.089 205.983C265.934 203.303 268.346 199.342 271.129 195.718C273.743 192.313 275.599 188.437 276.746 184.408C278.399 178.61 277.353 172.963 273.086 168.446C270.927 166.171 267.284 164.907 263.101 166.727C259.576 168.261 256.337 170.654 252.323 171.076C251.919 171.109 251.446 171.463 251.16 171.345C248.714 170.233 248.107 172.138 247.112 173.621C244.7 177.211 243.536 181.408 241.31 185.082C236.452 193.122 232.067 201.466 226.957 209.371C223.836 214.191 220.244 218.591 216.651 223.023C214.155 226.091 211.979 229.445 209.365 232.446C207.544 234.536 205.452 236.356 203.479 238.244C199.11 242.407 195.214 247.042 190.003 250.38C185.719 253.127 181.806 256.481 177.302 258.942C173.187 261.184 169.24 263.678 164.72 265.229C159.93 266.881 155.107 268.617 150.671 271.213C149.288 272.022 147.669 272.51 146.184 272.881C143.772 273.488 141.681 274.853 139.185 275.325C137.228 275.696 135.255 276.589 133.349 277.348C131.528 278.073 129.79 278.46 127.868 278.41C125.962 278.376 124.106 278.578 122.369 279.488C121.324 280.028 120.143 280.011 118.996 279.994C115.505 279.91 111.997 279.826 108.741 278.309C108.269 278.09 107.645 277.87 107.409 277.466C105.773 274.769 103.428 272.544 102.4 269.46C101.742 267.521 101.792 265.532 102.349 263.695C103.31 260.493 104.592 257.408 105.722 254.256C107.611 249.031 111.001 244.649 113.751 239.896C115.994 236.019 119.654 233.238 121.998 229.445C125.186 224.288 130.161 220.917 134.395 216.821C141.006 210.416 148.664 205.342 156.22 200.201C161.6 196.544 167.166 193.072 172.934 190.088C181.266 185.773 189.446 181.121 198.048 177.295C202.332 175.391 206.683 173.655 211.119 172.171C214.982 170.873 218.355 169.12 220.379 165.412C220.716 164.772 221.424 164.064 220.834 163.407C220.159 162.665 219.451 163.491 218.911 163.862C214.627 166.811 210.107 169.323 205.334 171.379C204.019 171.952 202.669 172.188 201.252 172.407C197.39 173.014 194.978 168.918 195.653 165.834C195.737 165.446 195.838 165.041 195.94 164.654C196.193 163.693 196.294 162.749 195.299 162.126C194.388 161.552 193.663 162.142 192.887 162.564C188.704 164.839 184.437 166.929 179.984 168.632C178.314 169.272 176.392 168.918 174.604 169.407C173.676 169.66 173.423 168.75 173.137 168.059C172.867 167.367 172.428 166.643 173.018 165.969C173.575 165.328 174.385 165.412 175.076 165.766C177.572 167.03 180.052 166.238 182.261 165.294C186.95 163.305 191.487 160.963 196.395 159.53C197.744 159.142 198.841 158.502 199.785 157.473C200.409 156.799 201.337 156.31 202.096 157.103C202.821 157.878 202.113 158.603 201.522 159.159C199.549 161.013 198.824 163.457 198.368 166.002C197.997 168.025 199.195 169.626 201.168 169.559C203.108 169.491 204.963 169.171 206.818 168.345C212.131 166.002 216.702 162.345 222.116 160.204C225.202 158.974 226.771 156.209 228.154 153.411C229.942 149.804 231.679 146.164 232.455 142.152C232.775 140.534 233.787 139.388 234.968 138.174C238.257 134.854 242.136 132.039 244.143 127.539C244.987 125.651 246.471 124.083 247.871 122.516C248.191 122.162 248.528 121.757 249.068 121.926C249.608 122.094 249.675 122.6 249.675 123.089C249.692 125.061 250.738 124.842 251.902 124.083C257.147 120.611 263.067 118.757 269.206 118.976C273.069 119.111 274.637 117.645 276.256 114.661C279.714 108.29 284.184 102.492 287.844 96.2384C291.908 89.3278 296.513 82.788 300.999 76.1976C305.03 70.2814 308.825 64.1292 313.801 58.8535C316.6 55.8702 318.877 52.4317 321.272 49.0775C323.667 45.757 326.585 42.8242 329.098 39.588C332.91 34.7 336.992 30.0311 341.141 25.4296C347.078 18.8224 353.15 12.3162 360.014 6.65289C362.763 4.39429 365.884 2.59078 369.105 1.07381C375.379 -1.87586 381.771 1.49519 383.323 8.20357C384.571 13.6141 383.374 18.7044 382.024 23.8621C380.456 29.8794 377.673 35.3742 374.637 40.7005C371.146 46.8189 367.418 52.8531 363.37 58.6176C360.014 63.4044 356.034 67.7362 352.323 72.2703C343.789 82.6531 334.344 92.1763 324.629 101.413C319.417 106.352 314.02 111.122 308.387 115.555C303.327 119.532 297.997 123.173 292.752 126.932C289.294 129.41 285.904 132.005 282.042 133.724C278.129 135.477 276.358 138.494 274.739 142.236C272.799 146.703 269.932 150.748 266.575 154.389C263.489 157.743 260.942 161.586 257.619 164.738C257.181 165.159 256.354 165.699 256.877 166.407C257.383 167.081 258.125 166.457 258.716 166.238C261.482 165.21 264.096 163.929 267.199 163.828C270.252 163.727 272.664 165.075 274.654 166.845C278.365 170.199 279.866 174.7 280.169 179.588ZM117.124 277.129C120.126 277.314 122.656 277.095 125.102 276.168C125.962 275.848 126.957 275.578 127.868 275.662C131.258 275.966 134.192 274.314 137.144 273.269C140.77 271.988 144.363 270.404 148.006 269.207C153.234 267.488 157.856 264.437 163.287 263.139C167.082 262.229 170.387 259.734 173.811 257.728C178.281 255.116 182.598 252.335 186.832 249.318C191.183 246.216 195.4 243.081 198.891 239.019C200.038 237.704 201.067 236.171 202.484 235.227C204.727 233.71 206.43 231.771 208.016 229.681C210.445 226.462 213.008 223.327 215.521 220.209C221.492 212.792 226.788 204.972 231.342 196.662C234.563 190.779 238.561 185.352 241.09 179.099C242.035 176.773 243.941 174.936 244.666 172.576C245.762 168.969 247.904 165.969 249.608 162.715C251.8 158.519 253.858 154.237 256.557 150.31C256.911 149.804 257.012 149.113 256.489 148.624C256.051 148.22 255.46 148.338 254.971 148.591C254.617 148.776 254.314 149.046 253.959 149.265C250.03 151.625 245.847 153.462 241.563 155.046C239.741 155.721 237.852 155.535 236.419 153.782C235.288 152.4 234.04 152.552 232.742 153.681C228.812 157.153 225.961 161.502 222.858 165.648C222.521 166.103 222.42 166.66 222.807 167.148C223.145 167.57 223.651 167.57 224.106 167.401C224.68 167.182 225.202 166.896 225.776 166.693C228.491 165.733 231.207 164.755 233.939 163.862C234.546 163.659 235.407 163.508 235.643 164.384C235.828 165.092 235.154 165.395 234.563 165.631C231.224 166.896 227.817 168.008 224.595 169.508C222.689 170.385 220.227 169.946 218.844 172.053C217.343 174.362 215.673 176.554 214.189 178.88C211.659 182.841 209.315 186.953 206.346 190.628C202.113 195.853 198.655 201.651 194.658 207.045C190.138 213.163 185.28 219.012 180.591 224.979C176.763 229.85 172.799 234.586 169.375 239.744C168.448 241.143 167.959 242.812 166.694 243.991C166.12 244.531 165.429 244.902 164.703 244.379C163.911 243.823 164.147 243.031 164.619 242.424C166.778 239.66 168.212 236.44 170.472 233.727C175.076 228.181 179.731 222.686 184.049 216.922C189.649 209.438 195.636 202.258 200.679 194.336C204.71 187.981 209.298 181.981 213.632 175.829C214.003 175.289 214.543 174.666 213.919 174.025C213.346 173.435 212.637 173.772 212.047 174.093C211.237 174.548 210.512 175.306 209.635 175.525C206.177 176.436 202.939 177.919 199.667 179.284C191.419 182.723 183.779 187.375 175.751 191.251C169.51 194.268 163.961 198.465 158.058 202.089C153.774 204.736 149.709 207.769 145.678 210.803C138.797 215.978 132.118 221.473 126.451 227.979C121.728 233.389 117.174 238.969 113.514 245.188C112.317 247.211 110.883 249.132 110.023 251.29C108.876 254.155 108.117 257.172 107.291 260.156C106.549 262.852 106.211 265.583 107.443 268.263C107.831 269.089 107.763 269.982 107.392 270.825C106.835 272.055 107.308 272.949 108.185 273.876C110.765 276.674 113.902 277.601 117.124 277.129ZM372.04 5.27076C366.929 4.95051 361.684 7.59678 358.614 11.8612C357.552 13.3276 356.219 14.4569 354.684 15.2828C353.318 16.0075 352.239 16.9851 351.446 18.2493C350.249 20.1539 348.697 21.7383 347.179 23.3564C342.625 28.2107 337.734 32.7279 333.956 38.307C329.621 44.712 323.549 49.7349 319.333 56.2915C317.95 58.4322 315.858 60.084 314.408 62.1572C309.905 68.5959 305.148 74.8491 300.831 81.4227C296.159 88.5356 291.504 95.6654 286.983 102.879C286.309 103.958 285.567 105.003 284.943 106.116C282.632 110.296 280.035 114.29 277.336 118.218C276.408 119.583 276.476 120.443 277.437 121.774C279.09 124.066 280.49 126.561 279.529 129.629C279.292 130.37 278.904 131.28 279.815 131.82C280.625 132.309 281.35 131.736 282.042 131.297C290.492 125.769 298.79 120.021 306.649 113.667C314.88 107.026 323.128 100.419 330.549 92.8674C335.929 87.4063 341.225 81.8609 346.285 76.0964C351.733 69.8769 356.759 63.337 361.903 56.8815C365.782 52.0103 368.447 46.3975 371.736 41.1724C375.126 35.7956 377.875 29.9974 379.748 23.8621C381.046 19.5977 382.092 15.2828 381.451 10.7487C381.147 8.59124 380.945 6.43377 377.875 6.80459C377.639 6.8383 377.353 6.66975 377.133 6.51805C375.531 5.38875 373.709 5.0685 372.04 5.27076ZM240.652 152.265C241.411 152.282 242.086 152.114 242.794 151.793C246.201 150.226 249.608 148.608 253.099 147.225C257.282 145.557 260.554 143.332 262.561 138.882C264.973 133.539 268.346 128.634 271.315 123.544C271.601 123.055 271.871 122.583 271.5 122.061C271.112 121.504 270.505 121.353 269.881 121.454C268.144 121.707 266.407 121.808 264.653 121.757C263.573 121.724 262.511 121.69 261.499 122.246C259.559 123.342 257.417 123.915 255.393 124.842C249.608 127.522 244.481 130.859 241.124 136.472C239.033 139.978 237.161 143.635 234.648 146.888C234.074 147.63 233.45 148.355 232.961 149.147C232.573 149.787 231.747 150.715 232.506 151.254C233.18 151.726 233.905 150.731 234.411 150.141C235.069 149.383 235.575 148.49 236.182 147.697C236.604 147.158 237.177 146.686 237.92 147.108C238.695 147.546 238.442 148.22 238.24 148.894C237.549 151.271 238.274 152.248 240.652 152.265ZM273.322 139.978C273.305 139.573 273.271 139.236 272.85 139.135C272.31 139.017 271.922 139.337 271.601 139.658C269.611 141.663 267.048 142.691 264.551 143.838C262.443 144.815 260.841 146.484 260.25 148.658C259.761 150.462 259.188 152.181 258.024 153.529C256.574 155.198 256.894 157.541 255.528 159.159C254.263 160.659 253.116 162.21 252.138 163.895C251.733 164.57 250.957 165.362 251.716 166.036C252.509 166.744 253.217 165.834 253.74 165.294C256.101 162.833 258.631 160.524 260.79 157.844C264.703 152.973 268.38 147.933 271.956 142.793C272.563 141.933 273.086 140.989 273.322 139.978ZM276.982 129.022C276.847 127.775 277.066 126.696 276.644 125.651C276.358 124.943 275.936 124.286 275.11 124.235C274.199 124.168 273.845 124.875 273.592 125.6C273.355 126.308 272.984 126.932 272.597 127.555C270.387 131.146 267.891 134.55 265.951 138.309C265.715 138.764 265.175 139.202 265.698 139.725C266.137 140.163 266.542 139.674 266.98 139.54C269.156 138.899 270.809 137.348 272.782 136.354C275.936 134.769 277.066 132.191 276.982 129.022Z" fill="white"/>
<path d="M144.498 74.8152C149.794 74.9331 151.126 76.8715 150.755 81.7427C150.451 85.6868 149.693 89.4624 148.428 93.1199C147.078 97.0472 145.341 100.84 143.216 104.43C141.85 106.739 140.669 109.183 139.252 111.442C132.405 122.33 123.904 131.87 114.999 141.107C108.218 148.135 101.219 154.962 93.7979 161.316C91.0824 163.642 88.4007 166.019 85.3142 167.839C83.4252 168.952 82.7674 170.941 81.806 172.66C77.5557 180.278 73.1199 187.762 68.4311 195.128C63.7423 202.493 59.5764 210.179 54.7189 217.444C52.2901 221.085 49.0687 224.136 46.7074 227.827C46.4882 228.164 46.2183 228.467 46.0159 228.821C45.8473 229.108 45.6955 229.462 46.0497 229.732C46.3532 229.968 46.7243 229.85 46.9773 229.63C47.7363 228.973 48.4953 228.299 49.2036 227.591C57.1645 219.635 64.9904 211.562 73.7102 204.415C74.7391 203.572 75.5487 202.46 76.4763 201.482C84.0155 193.611 92.3643 186.599 100.038 178.862C102.939 175.93 105.604 172.929 107.713 169.306C111.103 163.474 115.707 158.501 119.772 153.141C126.164 144.714 132.995 136.657 139.657 128.448C143.047 124.252 146.572 120.206 150.266 116.279C153.302 113.043 155.747 109.318 158.817 106.082C166.154 98.3788 173.002 90.2545 180.625 82.8045C185.162 78.3885 190.02 74.3264 194.506 69.8766C196.463 67.9382 198.385 65.9493 200.477 64.1458C202.13 62.73 204.744 62.8479 206.886 64.6852C208.488 66.0673 207.476 67.5337 206.751 69.0338C203.816 75.1186 200.106 80.7482 196.142 86.1587C191.706 92.2435 186.916 98.0922 181.755 103.604C176.695 109.014 171.838 114.627 166.508 119.802C161.87 124.302 157.265 128.853 152.543 133.286C146.117 139.32 139.607 145.27 133.147 151.27C130.145 154.068 126.805 156.496 123.921 159.327C119.924 163.221 116.028 167.249 111.862 170.941C107.207 175.036 103.816 179.975 100.713 185.166C98.5879 188.723 96.3953 192.364 95.0629 196.24C94.1858 198.785 93.6798 201.701 93.8316 204.533C93.9328 206.286 95.5014 206.556 97.3735 205.915C104.154 203.589 108.657 198.33 113.666 193.695C114.948 192.498 116.179 191.234 117.765 190.442C118.271 190.189 118.861 189.498 119.367 190.071C119.907 190.695 119.35 191.436 118.794 191.757C115.926 193.425 114.24 196.324 111.693 198.33C109.956 199.712 108.337 201.263 106.869 202.915C104.187 205.932 100.544 207.415 97.0699 209.134C95.67 209.826 93.916 209.876 92.6847 208.663C91.1668 207.146 90.6608 205.106 91.0993 203.067C91.4535 201.398 91.7402 199.763 91.6559 198.077C91.521 195.532 93.1064 193.661 94.1352 191.588C94.6749 190.509 95.1978 189.414 95.6869 188.301C95.8556 187.931 95.9905 187.492 95.6363 187.172C95.1809 186.717 94.7087 187.071 94.3882 187.358C92.9377 188.655 91.5041 189.987 90.1042 191.335C86.7478 194.538 83.3746 197.74 80.0519 200.993C76.3582 204.617 72.8669 208.477 69.0046 211.916C65.8506 214.73 63.1014 218.034 59.6101 220.444C57.7379 221.725 56.473 223.579 54.955 225.164C47.6351 232.799 39.5562 239.659 32.4218 247.463C28.104 252.183 23.9887 257.088 19.4685 261.622C15.3869 265.717 12.0811 270.572 7.34171 274.027C6.1948 274.853 5.0985 275.746 3.91787 276.505C3.00709 277.095 1.84332 277.28 1.18554 276.319C0.527757 275.359 1.64093 274.819 2.21438 274.229C6.2454 269.948 11.4402 266.948 15.3363 262.633C19.1143 258.436 22.6562 253.986 26.6029 249.941C32.0676 244.328 36.0143 237.485 41.3946 231.805C42.9969 230.102 43.992 227.894 45.3413 225.973C49.6759 219.736 54.2635 213.685 58.1933 207.162C62.899 199.342 67.4529 191.42 72.5296 183.818C73.9632 181.66 74.9752 179.233 76.1558 176.924C76.3414 176.57 76.5269 176.149 76.1558 175.812C75.8016 175.491 75.3631 175.609 75.0427 175.862C74.3343 176.385 73.7271 177.025 72.985 177.48C72.3947 177.834 71.6357 177.952 71.1634 177.278C70.6912 176.604 71.2984 176.166 71.7369 175.778C73.8958 173.856 76.004 171.868 78.7026 170.637C80.794 169.676 81.7385 167.654 82.818 165.8C87.5405 157.76 92.0438 149.568 97.0025 141.68C100.14 136.674 103.428 131.752 106.313 126.611C110.597 118.976 115.522 111.779 120.345 104.514C123.735 99.4238 126.991 94.2324 130.769 89.4455C133.484 86.007 136.25 82.6697 138.223 78.7424C138.308 78.557 138.443 78.4053 138.544 78.2368C139.944 75.6411 142.052 74.5286 144.498 74.8152ZM148.579 82.2146C148.579 81.2033 148.579 80.6639 148.579 80.1246C148.596 79.4503 148.697 78.6919 147.955 78.3379C147.264 78.0177 146.859 78.6244 146.42 79.029C145.408 79.9391 144.16 80.4785 142.98 81.119C140.602 82.4 138.257 83.7484 136.503 85.8553C130.414 93.1536 125.236 101.109 120.143 109.099C115.049 117.071 110.006 125.094 105.284 133.32C101.809 139.371 98.065 145.27 94.3376 151.169C92.2968 154.406 90.9981 158.063 88.3838 160.962C88.0634 161.316 87.7767 161.805 88.114 162.243C88.5694 162.816 89.1091 162.445 89.5476 162.159C91.3692 160.945 92.4823 158.973 94.2027 157.692C98.4698 154.49 102.265 150.765 106.06 147.057C111.271 141.983 116.5 136.893 121.34 131.466C125.81 126.46 129.774 120.998 133.939 115.723C137.498 111.206 139.91 106.014 142.609 100.991C144.127 98.1596 145.223 95.1594 146.218 92.1086C147.331 88.6702 148.428 85.3328 148.579 82.2146ZM204.423 68.2079C204.44 67.5674 204.272 67.1292 203.782 66.9101C203.209 66.6404 202.72 66.9438 202.298 67.2977C201.202 68.1742 200.274 69.3035 198.79 69.5732C196.918 69.9103 195.771 71.225 194.658 72.5903C194.27 73.0622 194.017 73.6521 193.578 74.0398C190.02 77.0569 186.933 80.5122 183.644 83.799C177.64 89.7995 171.619 95.7494 165.985 102.121C160.774 108.02 155.613 113.953 150.468 119.92C143.975 127.437 137.701 135.14 131.426 142.877C126.889 148.472 122.589 154.254 117.9 159.715C117.276 160.44 115.791 161.417 116.753 162.277C117.512 162.968 118.659 161.603 119.367 160.878C124.747 155.316 130.465 150.158 136.351 145.118C141.546 140.669 146.572 135.915 151.379 131.078C159.391 123.004 167.824 115.369 175.515 106.958C181.89 99.9969 187.979 92.8165 193.764 85.3834C196.884 81.355 199.465 76.8883 202.197 72.5734C203.108 71.1407 203.732 69.59 204.423 68.2079Z" fill="white"/>
<path d="M441.984 79.2821C441.849 80.462 441.14 80.9508 440.348 81.389C431.796 86.2096 423.414 91.3167 415.065 96.4744C408.234 100.688 400.881 103.908 394.235 108.341C389.311 111.627 383.964 114.189 379.14 117.645C377.099 119.111 374.603 119.92 372.411 121.252C361.768 127.657 351.041 133.944 340.382 140.298C337.093 142.253 333.989 144.613 330.566 146.282C324.814 149.063 319.468 152.569 313.767 155.417C311.203 156.698 308.538 157.878 306.261 159.698C305.587 160.238 304.878 161.114 304.069 160.035C303.411 159.142 303.799 158.215 304.592 157.524C306.16 156.193 308.15 155.636 309.921 154.692C313.598 152.737 317.241 150.748 320.817 148.608C324.393 146.467 328.036 144.428 331.746 142.54C333.736 141.528 335.659 140.399 337.447 139.118C342.119 135.798 347.381 133.505 352.154 130.387C355.814 127.994 359.761 126.089 363.387 123.662C366.238 121.757 369.071 119.836 372.141 118.285C380.422 114.105 388.012 108.661 396.192 104.363C403.225 100.671 409.989 96.5419 416.937 92.7494C422.115 89.9178 427.141 86.8164 432.235 83.8162C434.9 82.2486 437.531 80.6137 440.179 79.0293C440.871 78.6247 441.663 78.1528 441.984 79.2821Z" fill="white"/>
<path d="M133.568 187.796C135.137 187.593 136.891 186.228 138.847 185.419C139.404 185.2 139.893 184.627 140.433 184.576C143.924 184.29 145.594 181.812 146.977 179.098C148.141 176.789 150.013 175.002 151.345 172.811C151.767 172.137 152.593 171.227 153.487 171.985C154.348 172.727 153.875 173.721 153.234 174.497C150.974 177.194 149.827 180.581 147.601 183.312C146.64 184.475 147.281 185.486 148.63 185.941C149.844 186.346 151.076 186.211 152.155 185.571C154.415 184.239 156.894 183.278 158.969 181.66C159.424 181.306 159.93 180.986 160.419 181.407C160.959 181.879 160.757 182.537 160.504 183.093C160.2 183.75 159.559 184.02 158.969 184.34C156.506 185.722 154.044 187.088 151.581 188.487C149.17 189.869 146.538 189.178 145.004 186.751C143.587 184.509 143.452 184.475 141.681 186.363C140.72 187.391 139.353 187.678 138.207 188.335C136.436 189.346 134.429 190.088 132.421 190.543C129.841 191.116 127.935 189.548 126.232 187.846C125.186 186.818 124.241 185.318 122.74 187.34C122.538 187.61 122.133 187.711 121.829 187.458C121.425 187.138 121.526 186.616 121.829 186.397C124.68 184.34 124.629 180.969 125.861 178.137C127.193 175.053 129.622 172.44 131.544 169.592C132.624 167.974 133.552 166.238 135.204 165.075C136.351 164.282 137.566 163.811 138.966 163.861C139.708 163.895 140.332 164.063 140.5 164.872C140.669 165.715 140.281 166.389 139.455 166.592C135.306 167.654 133.535 171.176 131.342 174.278C130.988 174.766 130.752 175.373 130.296 175.761C127.733 177.969 128.424 181.222 127.665 184.003C127.227 185.638 130.448 187.779 133.568 187.796Z" fill="white"/>
</svg>
