<svg width="64" height="54" viewBox="0 0 64 54" fill="none" xmlns="http://www.w3.org/2000/svg">
<path d="M6.30657 52.3348C2.10219 49.6388 0 46.6256 0 43.2952C0 42.6608 0.155718 41.8678 0.467152 40.9163C0.934306 36.793 2.25791 31.9559 4.43795 26.4053L6.07299 21.4097C6.85158 18.2379 8.17518 15.2247 10.0438 12.37C12.0681 9.51541 14.7153 6.18502 17.9854 2.37885C17.9854 2.06168 18.219 1.82379 18.6861 1.66519C19.1533 1.34801 19.7762 1.11013 20.5547 0.951544C21.4891 0.634358 22.5012 0.317177 23.5912 0H25.6934C26.3163 0 26.8613 0.158588 27.3285 0.475765C27.7956 0.634363 28.3406 1.03084 28.9635 1.66519V2.61673C28.9635 4.04405 28.1849 5.78854 26.6277 7.85022C20.7105 17.6828 16.9732 24.8194 15.4161 29.2599C15.4161 29.8943 15.3382 30.4493 15.1825 30.9251C17.8297 30.4493 20.5547 31.4009 23.3577 33.7797C25.5377 36 26.6277 38.2203 26.6277 40.4405C26.6277 43.9295 23.9805 47.4978 18.6861 51.1454C15.5718 53.0485 13.3139 54 11.9124 54C11.1338 54 9.2652 53.4449 6.30657 52.3348ZM41.3431 52.3348C37.1387 49.6388 35.0365 46.6256 35.0365 43.2952C35.0365 42.6608 35.1922 41.8678 35.5037 40.9163C35.9708 36.793 37.2944 31.9559 39.4744 26.4053L41.1095 21.4097C41.8881 18.2379 43.2117 15.2247 45.0803 12.37C47.1046 9.51541 49.7518 6.18502 53.0219 2.37885C53.0219 2.06168 53.2555 1.82379 53.7226 1.66519C54.1898 1.34801 54.8126 1.11013 55.5912 0.951544C56.5255 0.634358 57.5377 0.317177 58.6277 0H60.7299C61.3528 0 61.8978 0.158588 62.365 0.475765C62.8321 0.634363 63.3771 1.03084 64 1.66519V2.61673C64 4.04405 63.2214 5.78854 61.6642 7.85022C55.747 17.6828 52.0097 24.8194 50.4526 29.2599C50.4526 29.8943 50.3747 30.4493 50.219 30.9251C52.8662 30.4493 55.5912 31.4009 58.3942 33.7797C60.5742 36 61.6642 38.2203 61.6642 40.4405C61.6642 43.9295 59.017 47.4978 53.7226 51.1454C50.764 53.0485 48.5061 54 46.9489 54C46.1703 54 44.3017 53.4449 41.3431 52.3348Z" fill="white" fill-opacity="0.25"/>
</svg>
